name analog
datacolumns 19
datarows 32
range 0.1965 0.212
endheader
time	ground_force_vx	ground_force_vy	ground_force_vz	ground_force_px	ground_force_py	ground_force_pz	l_ground_force_vx	l_ground_force_vy	l_ground_force_vz	l_ground_force_px	l_ground_force_py	l_ground_force_pz	ground_torque_x	ground_torque_y	ground_torque_z	l_ground_torque_x	l_ground_torque_y	l_ground_torque_z
0.1965	-0.0	-0.0	-0.0	0.1798712909221649	62.124473571777344	-433.351806640625	3.459996700286865	-58.11621856689453	-436.4406127929688	-0.0	-0.0	-0.0	-0.0	-0.0	-0.0	90731.8203125	-976.70458984375	-4372.822265625
0.197	-0.0	-0.0	-0.0	0.4442252814769745	61.23405075073242	-435.1162414550781	3.547729253768921	-58.29336166381836	-435.0373840332031	-0.0	-0.0	-0.0	-0.0	-0.0	-0.0	90874.2578125	-1088.9989013671875	-4402.6787109375
0.1975	-0.0	-0.0	-0.0	0.1771503388881683	61.7661018371582	-436.5253601074219	3.8137459754943848	-58.11526107788086	-434.6921691894531	-0.0	-0.0	-0.0	-0.0	-0.0	-0.0	90667.453125	-1365.69873046875	-4254.55322265625
0.198	-0.0	-0.0	-0.0	-0.3578399419784546	60.78743362426758	-439.002685546875	4.433603763580322	-57.67599105834961	-436.0770568847656	-0.0	-0.0	-0.0	-0.0	-0.0	-0.0	90775.1328125	-1564.7120361328125	-4430.79150390625
0.1985	-0.0	-0.0	-0.0	-0.4449719786643982	60.25539016723633	-438.2984619140625	4.6103363037109375	-57.496376037597656	-435.7391357421875	-0.0	-0.0	-0.0	-0.0	-0.0	-0.0	90829.90625	-1729.2786865234375	-4253.4580078125
0.199	-0.0	-0.0	-0.0	-0.7183372378349304	60.25157165527344	-438.65869140625	5.231672286987305	-56.968055725097656	-433.99993896484375	-0.0	-0.0	-0.0	-0.0	-0.0	-0.0	91061.40625	-1927.73486328125	-4282.37109375
0.1995	-0.0	-0.0	-0.0	-1.6051321029663086	60.60342025756836	-439.3558349609375	5.320083141326904	-56.26283264160156	-433.30474853515625	-0.0	-0.0	-0.0	-0.0	-0.0	-0.0	90757.578125	-2386.34765625	-4104.787109375
0.2	-0.0	-0.0	-0.0	-1.7834938764572144	59.81294631958008	-438.9998474121094	5.411357879638672	-56.17259216308594	-433.6435546875	-0.0	-0.0	-0.0	-0.0	-0.0	-0.0	90752.609375	-2615.1259765625	-4192.58056640625
0.2005	-0.0	-0.0	-0.0	-2.4124717712402344	60.33674240112305	-436.5303955078125	5.500068664550781	-55.64487457275391	-430.4981384277344	-0.0	-0.0	-0.0	-0.0	-0.0	-0.0	90327.140625	-2495.134033203125	-4073.699951171875
0.201	-0.0	-0.0	-0.0	-3.0331573486328125	59.89729309082031	-437.2136840820313	5.3226470947265625	-54.76188278198242	-429.8088684082031	-0.0	-0.0	-0.0	-0.0	-0.0	-0.0	89881.671875	-2852.548095703125	-4163.3623046875
0.2015	-0.0	-0.0	-0.0	-3.5675289630889893	60.60422134399414	-434.7715759277344	4.7060418128967285	-54.31871032714844	-428.737548828125	-0.0	-0.0	-0.0	-0.0	-0.0	-0.0	89656.34375	-2486.473876953125	-4223.328125
0.202	-0.0	-0.0	-0.0	-4.010605812072754	60.60770797729492	-434.0390319824219	4.350624561309815	-53.612213134765625	-426.31787109375	-0.0	-0.0	-0.0	-0.0	-0.0	-0.0	89355.5	-3198.405029296875	-4546.58251953125
0.2025	-0.0	-0.0	-0.0	-4.631890296936035	60.33826446533203	-432.6494445800781	3.904264688491821	-52.99794006347656	-426.6515808105469	-0.0	-0.0	-0.0	-0.0	-0.0	-0.0	88856.0390625	-3049.0810546875	-4754.28271484375
0.203	-0.0	-0.0	-0.0	-4.8173675537109375	59.720516204833984	-431.2202453613281	3.282299041748047	-53.081336975097656	-426.3019714355469	-0.0	-0.0	-0.0	-0.0	-0.0	-0.0	88603.921875	-3312.8408203125	-4670.47265625
0.20350000000000001	-0.0	-0.0	-0.0	-6.232357978820801	59.535736083984375	-429.806640625	2.395191192626953	-53.78129959106445	-425.6332702636719	-0.0	-0.0	-0.0	-0.0	-0.0	-0.0	88772.1015625	-3075.26171875	-5024.8095703125
0.20400000000000001	-0.0	-0.0	-0.0	-6.9525017738342285	59.01023864746094	-427.3617858886719	1.070352554321289	-53.43578338623047	-428.05072021484375	-0.0	-0.0	-0.0	-0.0	-0.0	-0.0	89212.671875	-3144.851318359375	-5440.16259765625
0.20450000000000002	-0.0	-0.0	-0.0	-7.493682861328125	59.370635986328125	-429.432861328125	0.1762158721685409	-54.22591400146485	-427.361572265625	-0.0	-0.0	-0.0	-0.0	-0.0	-0.0	89259.4296875	-2847.698974609375	-5619.748046875
0.20500000000000002	-0.0	-0.0	-0.0	-8.115555763244629	59.713470458984375	-429.4565124511719	-0.8819851875305176	-54.84904479980469	-428.4191284179688	-0.0	-0.0	-0.0	-0.0	-0.0	-0.0	89358.921875	-2964.067626953125	-5857.51806640625
0.20550000000000002	-0.0	-0.0	-0.0	-8.118156433105469	59.80918502807617	-429.488037109375	-1.5954726934432983	-55.64923858642578	-429.477294921875	-0.0	-0.0	-0.0	-0.0	-0.0	-0.0	89599.046875	-2657.65771484375	-6033.53466796875
0.20600000000000002	-0.0	-0.0	-0.0	-8.469331741333008	59.90695190429688	-429.4443664550781	-1.8587372303009035	-56.26091766357422	-430.49847412109375	-0.0	-0.0	-0.0	-0.0	-0.0	-0.0	89570.59375	-2897.46630859375	-6068.009765625
0.20650000000000002	-0.0	-0.0	-0.0	-8.20441722869873	61.22374725341797	-431.5800476074219	-1.5139011144638062	-57.326568603515625	-432.9251098632813	-0.0	-0.0	-0.0	-0.0	-0.0	-0.0	90415.9140625	-3052.108642578125	-6156.58056640625
0.20700000000000002	-0.0	-0.0	-0.0	-7.6721038818359375	61.85801315307617	-433.3457946777344	-1.7682327032089231	-58.46150970458984	-434.3446044921875	-0.0	-0.0	-0.0	-0.0	-0.0	-0.0	90094.53125	-2780.699951171875	-6212.39013671875
0.20750000000000002	-0.0	-0.0	-0.0	-7.31207799911499	63.18709564208984	-432.6517639160156	-1.0723830461502075	-58.74174499511719	-435.3858947753906	-0.0	-0.0	-0.0	-0.0	-0.0	-0.0	90628.6015625	-2915.49365234375	-6007.2939453125
0.20800000000000002	-0.0	-0.0	-0.0	-7.052581310272217	63.72329330444336	-435.44476318359375	-1.1564977169036863	-59.26385498046875	-435.074951171875	-0.0	-0.0	-0.0	-0.0	-0.0	-0.0	90657.0390625	-3091.53662109375	-5946.5048828125
0.2085	-0.0	-0.0	-0.0	-6.520826816558838	64.01253509521484	-435.8307495117188	-0.5389450788497925	-59.79045867919922	-438.1589965820313	-0.0	-0.0	-0.0	-0.0	-0.0	-0.0	90691.921875	-3233.230712890625	-5830.83935546875
0.209	-0.0	-0.0	-0.0	-6.14845609664917	64.61600494384766	-434.4393005371094	-0.2696225047111511	-60.23712539672852	-437.8292541503906	-0.0	-0.0	-0.0	-0.0	-0.0	-0.0	90654.140625	-3051.866455078125	-5858.72412109375
0.2095	-0.0	-0.0	-0.0	-5.720426559448242	65.15979766845703	-435.8601684570313	-0.1792246699333191	-60.50215530395508	-436.80999755859375	-0.0	-0.0	-0.0	-0.0	-0.0	-0.0	90934.875	-3097.250732421875	-5738.2431640625
0.21	-0.0	-0.0	-0.0	-5.980906486511231	65.766845703125	-436.8384399414063	0.0056341886520385	-60.502227783203125	-437.8287353515625	-0.0	-0.0	-0.0	-0.0	-0.0	-0.0	90795.3515625	-3376.350341796875	-5682.451171875
0.2105	-0.0	-0.0	-0.0	-6.250563144683838	65.95067596435547	-433.3441162109375	0.6075407862663269	-60.93814086914063	-436.7811279296875	-0.0	-0.0	-0.0	-0.0	-0.0	-0.0	90754.0390625	-3400.193359375	-5594.45263671875
0.211	-0.0	-0.0	-0.0	-6.698722362518311	65.4256820678711	-433.0143127441406	0.1931024193763733	-61.287445068359375	-438.2007446289063	-0.0	-0.0	-0.0	-0.0	-0.0	-0.0	90708.265625	-3429.095703125	-5679.294921875
0.2115	-0.0	-0.0	-0.0	-6.520603179931641	65.5087890625	-433.9603576660156	0.2661323547363281	-60.77139663696289	-437.908203125	-0.0	-0.0	-0.0	-0.0	-0.0	-0.0	90940.4609375	-3534.90185546875	-5737.68408203125
0.212	-0.0	-0.0	-0.0	-7.047630310058594	64.80626678466797	-428.8023376464844	0.7837467789649963	-60.85364532470703	-438.85888671875	-0.0	-0.0	-0.0	-0.0	-0.0	-0.0	90877.9453125	-3568.21435546875	-5826.251953125
